<svg width="2500" height="1500" viewBox="0 0 2500 1500" fill="none" xmlns="http://www.w3.org/2000/svg">
<g clip-path="url(#clip0)">
<path d="M73.0396 640.501C140.139 534.971 -40.8703 490.484 -45.7891 473.06L-253.177 968.533C-245.985 990.585 -92.3604 1025.61 -60.7891 1001.65C166.22 829.368 -45.7891 827.388 73.0396 640.501Z" fill="#3040C4"/>
<path d="M49.7012 550.339C63.1817 432.669 -17.8801 399.484 -22.7989 382.06L-230.186 877.533C-222.995 899.585 -65.0683 937.724 -37.7988 910.653C204.701 669.916 27.7012 742.375 49.7012 550.339Z" fill="#F3C6BD"/>
<path d="M27.7012 635.339C41.1817 517.669 -39.8801 484.484 -44.7989 467.06L-252.186 962.533C-244.995 984.585 -87.0683 1022.72 -59.7988 995.653C182.701 754.916 5.70117 827.375 27.7012 635.339Z" stroke="black"/>
<rect x="120.53" y="905.5" width="22" height="22" transform="rotate(180 120.53 905.5)" stroke="#292929"/>
<circle cx="123.266" cy="550.765" r="13.2647" transform="rotate(180 123.266 550.765)" stroke="#292929"/>
<path d="M89.8347 702.587L67.4434 680.195M67.4434 702.587L89.8347 680.195" stroke="#292929"/>
<path d="M2462.13 812.697C2486.58 860.349 2526.71 997.024 2531.62 1014.48L2756.89 495.018C2749.7 472.927 2538.96 346.408 2531.62 439.367C2514.61 655.063 2329.24 553.709 2462.13 812.697Z" fill="#3040C4"/>
<path d="M2435.13 689.698C2459.58 737.35 2499.71 874.025 2504.62 891.48L2729.89 372.019C2722.7 349.927 2531 232 2504.62 316.368C2438.39 528.229 2302.24 430.709 2435.13 689.698Z" fill="#F3C6BD"/>
<path d="M2435.13 786.697C2459.58 834.349 2499.71 971.024 2504.62 988.48L2729.89 469.018C2722.7 446.927 2531 332 2504.62 413.367C2436.09 624.788 2302.24 527.709 2435.13 786.697Z" stroke="black"/>
<path d="M2434.24 388.634L2416.97 417.56L2399.69 388.634H2434.24Z" stroke="#292929"/>
<rect x="2423.75" y="953.455" width="26.9549" height="26.9549" transform="rotate(-180 2423.75 953.455)" stroke="#292929"/>
<path d="M2348.5 756.975C2348.5 750.329 2354.19 744.895 2361.28 744.895C2368.36 744.895 2374.06 750.329 2374.06 756.975C2374.06 763.621 2368.36 769.055 2361.28 769.055C2354.19 769.055 2348.5 763.621 2348.5 756.975Z" stroke="#292929"/>
<path d="M2397.82 552.818L2376.61 531.606M2376.61 552.818L2397.82 531.606" stroke="#292929"/>
</g>
<defs>
<clipPath id="clip0">
<rect width="2500" height="1500" fill="white"/>
</clipPath>
</defs>
</svg>
